<?xml version="1.0" standalone="no"?>
<!DOCTYPE svg PUBLIC "-//W3C//DTD SVG 20010904//EN"
 "http://www.w3.org/TR/2001/REC-SVG-20010904/DTD/svg10.dtd">
<svg version="1.0" xmlns="http://www.w3.org/2000/svg"
 width="512.000000pt" height="512.000000pt" viewBox="0 0 512.000000 512.000000"
 preserveAspectRatio="xMidYMid meet">

<g transform="translate(0.000000,512.000000) scale(0.100000,-0.100000)"
fill="#000000" stroke="none">
<path d="M477 5113 c-3 -5 -75 -222 -161 -484 l-156 -477 0 -1756 0 -1756 640
0 640 0 0 -320 0 -320 323 0 322 0 320 320 320 320 477 0 478 0 640 682 640
681 0 1559 0 1558 -2239 0 c-1232 0 -2242 -3 -2244 -7z m4163 -1593 l0 -1280
-447 -480 -448 -480 -568 0 -567 0 -343 -249 -342 -249 -3 249 -2 249 -560 0
-560 0 0 1760 0 1760 1920 0 1920 0 0 -1280z"/>
<path d="M2400 3200 l0 -640 160 0 160 0 0 640 0 640 -160 0 -160 0 0 -640z"/>
<path d="M3360 3200 l0 -640 160 0 160 0 0 640 0 640 -160 0 -160 0 0 -640z"/>
</g>
</svg>
